<?xml version="1.0" encoding="UTF-8"?><svg id="Layer_1" xmlns="http://www.w3.org/2000/svg" viewBox="0 0 101.58 21.6"><defs><style>.cls-1{fill:#01637c;}.cls-2{fill:#6db8c8;}.cls-3{fill:#565759;}.cls-4{fill:#255d3a;}</style></defs><g><path class="cls-3" d="M20.69,.55c4.22,0,6.68,2.2,6.68,5.5,0,1.98-1.07,3.29-2.64,4.05v.11c1.88,.8,3.31,2.31,3.31,4.72,0,3.85-2.53,6.12-6.9,6.12H9.94V.55h10.76Zm-1.21,8.28c1.63,0,2.47-.82,2.47-2.14s-.85-2.14-2.47-2.14h-4.09v4.27h4.09Zm.37,8.12c1.73,0,2.63-.87,2.63-2.28s-.9-2.28-2.63-2.28h-4.46v4.56h4.46Z"/><path class="cls-3" d="M36.02,16.76l-1.36,4.3h-5.74L36.21,.55h7.36l7.29,20.51h-5.83l-1.39-4.3h-7.62Zm3.83-11.73h-.11l-2.5,7.87h5.15l-2.54-7.87Z"/><path class="cls-3" d="M61.39,5.06v16h-5.46V5.06h-6.39V.55h18.23V5.06h-6.39Z"/></g><polygon class="cls-4" points="69.12 .5 75.75 .5 82.96 10.74 75.6 21.08 69.12 21.08 76.04 10.79 69.12 .5"/><g><polygon class="cls-2" points="81.97 4.04 84.72 .5 91.64 .5 85.51 9.11 81.97 4.04"/><polygon class="cls-1" points="84.68 .56 88.09 5.49 85.51 9.11 81.97 4.04 84.68 .56"/></g><g><polygon class="cls-2" points="81.97 17.56 84.72 21.1 91.64 21.1 85.51 12.49 81.97 17.56"/><polygon class="cls-1" points="84.68 21.04 88.09 16.11 85.51 12.49 81.97 17.56 84.68 21.04"/></g></svg>