<svg width="145" height="34" viewBox="0 0 145 34" fill="none" xmlns="http://www.w3.org/2000/svg">
<path d="M46.2476 20.8107C46.2476 21.1687 46.5369 21.4589 46.8939 21.4589H54.7269C55.0839 21.4589 55.3732 21.7491 55.3732 22.1071V23.7664C55.3732 24.1244 55.0839 24.4146 54.7269 24.4146H43.6883C43.3313 24.4146 43.042 24.1244 43.042 23.7664V7.25093C43.042 6.89295 43.3313 6.60275 43.6883 6.60275H45.6013C45.9582 6.60275 46.2476 6.89295 46.2476 7.25093V20.8107Z" fill="#1a1a2e"/>
<path d="M64.1179 21.9256C65.1167 21.9256 66.2663 21.556 67.0678 21.0062C67.3699 20.7989 67.7928 20.797 68.0467 21.0616L69.1469 22.208C69.3854 22.4566 69.3896 22.8519 69.1218 23.0684C67.8732 24.0779 65.8571 24.7257 64.1438 24.7257C60.3177 24.7257 57.1638 21.796 57.1638 17.6736C57.1638 13.6549 60.1626 10.6992 63.9628 10.6992C67.9153 10.6992 70.2862 13.5638 70.4891 18.1392C70.5049 18.4968 70.2139 18.7884 69.857 18.7884H61.2182C60.8075 18.7884 60.4985 19.1707 60.652 19.5528C61.2247 20.978 62.4824 21.9256 64.1179 21.9256ZM64.0921 13.4993C62.6131 13.4993 61.372 14.2885 60.7383 15.5888C60.552 15.9709 60.8625 16.3772 61.2866 16.3772H66.6783C67.09 16.3772 67.4003 15.993 67.2459 15.6102C66.7342 14.3414 65.6778 13.4993 64.0921 13.4993Z" fill="#1a1a2e"/>
<path d="M79.0537 10.6992C82.5953 10.6992 84.7927 12.9549 84.7927 16.3513V23.7664C84.7927 24.1244 84.5034 24.4146 84.1464 24.4146H82.1301C81.9016 24.4146 81.7164 24.2288 81.7164 23.9997C81.7164 23.6064 81.1768 23.3972 80.862 23.6317C79.9022 24.3465 78.666 24.7257 77.5026 24.7257C74.6589 24.7257 72.5132 23.0405 72.5132 20.4478C72.5132 17.8032 74.9691 15.9883 77.9679 15.9883C79.0704 15.9883 80.2581 16.2018 81.3764 16.59C81.5413 16.6473 81.7164 16.5264 81.7164 16.3513C81.7164 14.7957 80.8633 13.2919 78.4332 13.2919C77.382 13.2919 76.3663 13.5955 75.401 14.0248C75.0737 14.1704 74.685 14.0412 74.5264 13.7192L74.0148 12.6808C73.8566 12.3597 73.9877 11.9694 74.3136 11.8229C75.9806 11.0738 77.5483 10.6992 79.0537 10.6992ZM78.2006 22.4182C79.6976 22.4182 81.2942 21.6689 81.695 20.293C81.7101 20.2412 81.7164 20.1872 81.7164 20.1332V19.174C81.7164 18.8969 81.5413 18.6482 81.2756 18.5724C80.406 18.3242 79.4478 18.1921 78.4332 18.1921C76.8563 18.1921 75.5896 19.0736 75.5896 20.3441C75.5896 21.6145 76.7012 22.4182 78.2006 22.4182Z" fill="#1a1a2e"/>
<path d="M96.0925 10.6992C99.6342 10.6992 102.219 13.603 102.219 17.6995C102.219 21.8219 99.6342 24.7257 96.0925 24.7257C94.8616 24.7257 93.779 24.3788 92.8814 23.7523C92.3618 23.3896 91.4392 23.7223 91.4392 24.3572V28.2259C91.4392 28.5838 91.1499 28.874 90.7929 28.874H88.9316C88.5747 28.874 88.2853 28.5838 88.2853 28.2259V11.6585C88.2853 11.3005 88.5747 11.0103 88.9316 11.0103H90.9335C91.2128 11.0103 91.4392 11.2374 91.4392 11.5176C91.4392 12.0144 92.1424 12.2611 92.5243 11.9446C93.4863 11.1473 94.6937 10.6992 96.0925 10.6992ZM95.2394 22.0293C97.4885 22.0293 99.0913 20.2144 99.0913 17.6995C99.0913 15.1846 97.4885 13.3956 95.2394 13.3956C93.0162 13.3956 91.4651 15.1846 91.4651 17.6995C91.4651 20.2144 93.0162 22.0293 95.2394 22.0293Z" fill="#1a1a2e"/>
<path d="M108.82 24.4146C108.463 24.4146 108.174 24.1244 108.174 23.7664V11.5162C108.174 11.0049 107.611 10.6949 107.181 10.9692L105.692 11.9185C105.382 12.1161 104.97 12.0152 104.786 11.6965L104.107 10.5215C103.937 10.2272 104.023 9.85118 104.303 9.66017L108.63 6.71462C108.737 6.64172 108.864 6.60275 108.993 6.60275H110.733C111.09 6.60275 111.38 6.89295 111.38 7.25093V23.7664C111.38 24.1244 111.09 24.4146 110.733 24.4146H108.82Z" fill="#1a1a2e"/>
<path d="M122.588 24.7257C118.012 24.7257 114.781 20.9145 114.781 15.4957C114.781 10.1029 118.012 6.29163 122.588 6.29163C127.138 6.29163 130.343 10.1029 130.343 15.4957C130.343 20.9145 127.138 24.7257 122.588 24.7257ZM122.588 21.77C125.199 21.77 127.06 19.1773 127.06 15.4957C127.06 11.8141 125.199 9.2473 122.588 9.2473C119.951 9.2473 118.09 11.8141 118.09 15.4957C118.09 19.1773 119.951 21.77 122.588 21.77Z" fill="#1a1a2e"/>
<path d="M144.873 23.3835C145.186 23.8117 144.881 24.4146 144.352 24.4146H142.465C142.258 24.4146 142.064 24.3155 141.942 24.148L139.399 20.6458C139.142 20.2912 138.615 20.2902 138.356 20.6438L135.789 24.15C135.667 24.3163 135.474 24.4146 135.268 24.4146H133.434C132.905 24.4146 132.6 23.8107 132.913 23.3826L136.892 17.9527C137.059 17.7248 137.059 17.4146 136.893 17.1863L133.141 12.0411C132.829 11.6129 133.134 11.0103 133.663 11.0103H135.526C135.732 11.0103 135.926 11.1088 136.048 11.2754L138.383 14.4713C138.642 14.8246 139.168 14.8246 139.426 14.4713L141.761 11.2754C141.883 11.1088 142.077 11.0103 142.283 11.0103H144.117C144.647 11.0103 144.951 11.614 144.638 12.0421L140.891 17.1609C140.724 17.3889 140.724 17.6991 140.891 17.9274L144.873 23.3835Z" fill="#1a1a2e"/>
<path d="M14.4848 3.52009C14.6634 3.59873 14.8345 3.70153 15.0187 3.81496C16.6384 4.84108 17.8383 6.27755 18.3982 7.86051C18.9466 9.3996 18.8869 11.2528 18.2297 13.08L18.0888 13.476C18.0087 13.701 18.111 13.9501 18.3256 14.0534C18.3901 14.0846 18.4588 14.0993 18.5265 14.0993C18.6835 14.0993 18.8355 14.0195 18.9228 13.8773C19.2161 13.3996 19.5223 12.8873 19.7597 12.3371C20.5266 10.6762 20.789 8.82067 20.4993 7.11246C20.0761 4.58408 18.5775 2.1429 16.3878 0.413798C15.9527 0.0507401 15.3564 -0.0842714 14.7915 0.0521108C14.2193 0.190378 13.7636 0.573139 13.5437 1.09605C13.1368 2.02451 13.5587 3.11197 14.4848 3.52009Z" fill="#1a1a2e"/>
<path d="M8.18496 6.40259C8.37903 6.381 8.5784 6.38426 8.79433 6.39009C10.7086 6.46633 12.4641 7.10832 13.7383 8.19835C14.9806 9.256 15.8531 10.8905 16.1951 12.8024L16.2705 13.216C16.3111 13.4391 16.505 13.5986 16.7276 13.5986C16.7394 13.5986 16.7514 13.5983 16.7635 13.5973C17.0008 13.5791 17.1863 13.3841 17.193 13.1455C17.2082 12.6094 17.2184 11.9878 17.1498 11.3917C16.9856 9.56885 16.2875 7.83049 15.1846 6.49666C13.5574 4.51946 11.0424 3.15718 8.2837 2.75814C7.72575 2.66202 7.14235 2.84398 6.72107 3.24558C6.29466 3.65233 6.09085 4.21242 6.16106 4.77543C6.27177 5.78356 7.17874 6.51345 8.18496 6.40259Z" fill="#1a1a2e"/>
<path d="M2.80532 12.3935C3.28964 12.4681 3.77379 12.3488 4.16876 12.0579C4.32593 11.9421 4.50036 11.8447 4.69033 11.7414C6.38605 10.8472 8.22629 10.5225 9.87315 10.8274C11.4764 11.1202 13.0471 12.098 14.2968 13.5821L14.5682 13.9023C14.6596 14.0102 14.7905 14.0666 14.9229 14.0666C15.0138 14.0666 15.1054 14.04 15.1853 13.985C15.3818 13.8502 15.4451 13.5882 15.3319 13.3782C15.0659 12.8847 14.7765 12.3627 14.42 11.8812C13.3688 10.3851 11.8974 9.22983 10.2772 8.62793C7.88206 7.73203 5.02482 7.81375 2.43717 8.85204C1.90621 9.04856 1.49142 9.49883 1.32708 10.0581C1.16068 10.6242 1.26353 11.2113 1.60503 11.6636C1.89477 12.0599 2.32117 12.3192 2.80532 12.3935Z" fill="#1a1a2e"/>
<path d="M3.51026 18.9698C3.58867 18.7906 3.691 18.6189 3.80409 18.4342C4.82655 16.8093 6.25816 15.6051 7.83634 15.043C9.37079 14.4923 11.2186 14.5512 13.0407 15.2097L13.4355 15.3509C13.6596 15.4311 13.9082 15.3284 14.011 15.1132C14.1141 14.8979 14.0382 14.6395 13.8354 14.5142C13.359 14.2202 12.848 13.9134 12.2993 13.6754C10.643 12.9071 8.79268 12.6446 7.08944 12.9363C4.56876 13.3618 2.1352 14.8658 0.412143 17.0628C0.0503123 17.4994 -0.0841357 18.0974 0.0521916 18.6641C0.190398 19.2378 0.572217 19.6947 1.09361 19.915C1.32987 20.019 1.57981 20.0713 1.83042 20.0713C2.05559 20.0713 2.28109 20.0292 2.49703 19.9447C2.9535 19.7658 3.31328 19.4199 3.51026 18.9698Z" fill="#1a1a2e"/>
<path d="M6.37472 24.6743C6.44989 22.7544 7.08898 20.9935 8.17533 19.715C9.22939 18.4685 10.8588 17.5928 12.7652 17.249L13.1774 17.1732C13.4116 17.1302 13.5756 16.9167 13.5574 16.6786C13.5391 16.4404 13.3445 16.2547 13.1065 16.248C12.572 16.2329 11.9522 16.223 11.358 16.2922C9.54065 16.4577 7.80752 17.1585 6.4779 18.2653C4.50731 19.8981 3.15001 22.4212 2.7535 25.1881C2.65801 25.7477 2.83961 26.3328 3.24039 26.7551C3.59316 27.1269 4.0616 27.3298 4.54694 27.3298C4.61955 27.3298 4.69284 27.3251 4.76595 27.3161C5.25284 27.2621 5.68967 27.0212 5.99597 26.6377C6.30228 26.2543 6.44117 25.7742 6.38736 25.2856C6.366 25.0911 6.36908 24.891 6.37472 24.6743Z" fill="#1a1a2e"/>
<path d="M11.711 28.7885C10.8186 27.0883 10.4941 25.2429 10.7972 23.5909C11.0883 21.9827 12.0628 20.4071 13.542 19.1532L13.8613 18.8807C14.0428 18.726 14.0781 18.4589 13.9437 18.2619C13.8092 18.0648 13.548 18.0016 13.3386 18.1152C12.8464 18.3823 12.3259 18.6729 11.8465 19.0306C10.3551 20.0856 9.20382 21.5616 8.60453 23.1869C7.71242 25.5893 7.79528 28.4549 8.83157 31.0498C9.02786 31.5821 9.47699 31.9978 10.0346 32.1624C10.2119 32.2148 10.3915 32.2405 10.5681 32.2405C10.9537 32.2405 11.3263 32.118 11.6355 31.883C12.4504 31.2823 12.626 30.1288 12.0271 29.3114C11.9114 29.1541 11.8142 28.9792 11.711 28.7885Z" fill="#1a1a2e"/>
<path d="M18.9194 29.9683C18.7404 29.8897 18.5694 29.787 18.3852 29.674C16.7647 28.6492 15.5632 27.2139 15.002 25.6313C14.4522 24.0927 14.5102 22.2396 15.1658 20.4118L15.3064 20.0158C15.3864 19.7909 15.2839 19.5418 15.0691 19.4386C14.8546 19.3356 14.5966 19.4117 14.4719 19.6151C14.1789 20.0931 13.8733 20.6057 13.6362 21.1562C12.8708 22.8177 12.6099 24.6736 12.9014 26.3814C13.3269 28.9093 14.8276 31.3493 17.0191 33.0763C17.3424 33.3455 17.7542 33.4891 18.1763 33.4891C18.3227 33.4891 18.4705 33.4718 18.6159 33.4365C19.1878 33.2975 19.6433 32.9144 19.8626 32.3915C20.2689 31.4627 19.8457 30.3757 18.9194 29.9683Z" fill="#1a1a2e"/>
<path d="M26.5639 27.4723C26.1813 27.1653 25.7025 27.026 25.2156 27.0803C25.0214 27.1019 24.8222 27.0988 24.6062 27.0933C22.6919 27.0188 20.9358 26.3785 19.6605 25.2897C18.4172 24.2331 17.5432 22.5992 17.1996 20.6875L17.1238 20.2741C17.0807 20.0392 16.8675 19.8757 16.6304 19.8932C16.393 19.9117 16.2078 20.1068 16.2013 20.3455C16.1859 20.9065 16.1768 21.5037 16.246 22.0991C16.4119 23.9219 17.1113 25.6596 18.2154 26.9926C19.8445 28.9683 22.3608 30.3283 25.1198 30.7246C25.2175 30.7414 25.3161 30.7496 25.4143 30.7496C25.8771 30.7496 26.3349 30.5673 26.6821 30.2358C27.1081 29.8287 27.3114 29.2684 27.2407 28.7054C27.1869 28.2171 26.9465 27.7792 26.5639 27.4723Z" fill="#1a1a2e"/>
<path d="M29.228 21.4213C29.0715 21.5369 28.8971 21.6346 28.707 21.7383C27.0121 22.6338 25.1722 22.9606 23.5248 22.6569C21.9214 22.3657 20.3497 21.3892 19.0988 19.9062L18.827 19.5861C18.6726 19.4043 18.4062 19.3689 18.21 19.5039C18.0135 19.6389 17.9506 19.9009 18.0641 20.1109C18.3307 20.6044 18.6208 21.1266 18.9774 21.607C20.03 23.1021 21.5023 24.2562 23.123 24.8565C24.2234 25.2669 25.4208 25.4709 26.6448 25.4709C28.086 25.4709 29.5641 25.1879 30.9629 24.6252C31.4937 24.4282 31.9079 23.9776 32.0719 23.4182C32.2378 22.8519 32.1345 22.2649 31.7925 21.8128C31.1932 20.996 30.0429 20.8202 29.228 21.4213Z" fill="#1a1a2e"/>
<path d="M33.3382 14.8115C33.1997 14.2379 32.8174 13.7814 32.2956 13.5615C31.3688 13.1545 30.2856 13.5794 29.8798 14.5086C29.8014 14.6881 29.6993 14.8598 29.5865 15.0445C28.5656 16.6703 27.135 17.8758 25.5573 18.4393C24.0236 18.9914 22.1758 18.9342 20.3528 18.2774L19.9578 18.1366C19.7334 18.0566 19.4851 18.1594 19.3825 18.3749C19.2798 18.5905 19.3558 18.8488 19.5588 18.9737C20.0354 19.2672 20.5467 19.5736 21.0958 19.811C22.3094 20.3727 23.6264 20.6628 24.9136 20.6628C25.3839 20.6628 25.8505 20.624 26.3061 20.5456C28.8265 20.1176 31.2587 18.6114 32.9798 16.4128C33.3411 15.9762 33.4751 15.3781 33.3382 14.8115Z" fill="#1a1a2e"/>
<path d="M27.0087 8.80692C26.9353 10.7269 26.2977 12.4884 25.2126 13.7677C24.1595 15.0152 22.5308 15.8924 20.6249 16.238L20.2129 16.3141C19.9787 16.3575 19.815 16.5709 19.8334 16.8091C19.8519 17.0471 20.0466 17.2328 20.2846 17.2391C20.4877 17.2446 20.7028 17.2494 20.9244 17.2494C21.2862 17.2494 21.6646 17.2367 22.0331 17.1934C23.8503 17.0263 25.5828 16.3239 26.9114 15.216C28.8804 13.5813 30.2355 11.0571 30.6296 8.28983C30.7248 7.73025 30.5425 7.14531 30.1414 6.72332C29.7353 6.29618 29.1761 6.09229 28.6153 6.16374C28.1284 6.21805 27.6917 6.45946 27.3859 6.84308C27.08 7.22687 26.9414 7.70712 26.9958 8.19542C27.0171 8.39006 27.0142 8.59018 27.0087 8.80692Z" fill="#1a1a2e"/>
<path d="M21.6698 4.69751C22.5636 6.39698 22.8899 8.24225 22.5882 9.89426C22.2987 11.5026 21.3257 13.0792 19.8477 14.3344L19.5287 14.6072C19.3475 14.762 19.3121 15.0292 19.4469 15.2262C19.5364 15.3571 19.6818 15.4289 19.8308 15.4289C19.9059 15.4289 19.9819 15.4105 20.0522 15.3725C20.544 15.1051 21.0642 14.814 21.5434 14.4559C23.0338 13.3998 24.1837 11.9223 24.7818 10.2966C25.6716 7.89341 25.5862 5.02785 24.5475 2.43384C24.3509 1.90168 23.9013 1.48636 23.3435 1.32222C22.7789 1.15603 22.1934 1.26003 21.7429 1.60321C20.9287 2.2046 20.754 3.35819 21.3538 4.17511C21.4689 4.33206 21.5663 4.50699 21.6698 4.69751Z" fill="#1a1a2e"/>
</svg>
