<svg width="860" height="95" viewBox="0 0 860 95" fill="none" xmlns="http://www.w3.org/2000/svg">
<path fill-rule="evenodd" clip-rule="evenodd" d="M298.984 56.3832L307.406 73.8379C307.475 73.9758 307.458 74.1129 307.355 74.2509C307.286 74.3541 307.165 74.4053 306.993 74.4053H293.871C293.698 74.4053 293.578 74.3376 293.509 74.1996L285.863 58.3444H246.134V73.9923C246.134 74.1302 246.1 74.2333 246.031 74.3024C245.962 74.3714 245.859 74.4053 245.721 74.4053H233.891C233.753 74.4053 233.65 74.3714 233.581 74.3024C233.512 74.2333 233.478 74.1302 233.478 73.9923V23.1768C233.478 23.0739 233.515 22.9847 233.581 22.9194C233.649 22.8504 233.753 22.7637 233.891 22.7637H291.339C295.61 22.7637 299.261 24.2617 302.291 27.2565C305.322 30.2514 306.837 33.8844 306.837 38.1526V43.007C306.837 45.7961 306.131 48.3778 304.719 50.7538C303.342 53.0944 301.431 54.9718 298.984 56.3832ZM246.134 33.9181V47.1899H291.339C292.097 47.1899 292.751 46.9326 293.303 46.4165C293.888 45.8653 294.181 45.1931 294.181 44.4023V36.7586C294.181 35.9676 293.888 35.2958 293.303 34.7445C292.751 34.1946 292.097 33.9181 291.339 33.9181H246.134ZM371.503 34.693L331.051 74.2509C330.948 74.3541 330.845 74.4053 330.741 74.4053H314.054C313.847 74.4053 313.71 74.3198 313.641 74.1479C313.572 73.9757 313.606 73.8202 313.744 73.6835L361.429 26.8435C364.322 24.1237 367.662 22.7637 371.451 22.7637H392.736C392.84 22.7637 392.929 22.8012 392.994 22.8666C393.063 22.9354 393.15 23.0385 393.15 23.1768V73.9409C393.15 74.0788 393.097 74.1996 392.994 74.3024C392.925 74.3714 392.84 74.4053 392.736 74.4053H380.803C380.698 74.4053 380.561 74.3799 380.492 74.3024C380.423 74.225 380.389 74.0788 380.389 73.9409V33.9181H373.518C372.76 33.9181 372.088 34.177 371.503 34.693ZM403.874 74.4053C403.737 74.4053 403.59 74.3714 403.513 74.3024C403.435 74.2336 403.409 74.0964 403.409 73.9923V23.1768C403.409 23.0385 403.435 22.9354 403.513 22.8666C403.59 22.7978 403.737 22.7637 403.874 22.7637H461.788C466.093 22.7637 469.761 24.2617 472.791 27.2565C475.858 30.2514 477.39 33.8666 477.39 38.1011V43.007C477.39 47.2428 475.858 50.8569 472.791 53.8528C469.761 56.8477 466.093 58.3444 461.788 58.3444H416.222V73.9923C416.222 74.0964 416.17 74.1996 416.067 74.3024C415.998 74.3714 415.911 74.4053 415.808 74.4053H403.874ZM416.222 47.1899H461.788C462.546 47.1899 463.2 46.9148 463.751 46.3639C464.338 45.8137 464.63 45.1595 464.63 44.4023V36.7071C464.63 35.9498 464.338 35.2958 463.751 34.7445C463.2 34.1946 462.546 33.9181 461.788 33.9181H416.222V47.1899ZM482.724 33.9181C482.585 33.9181 482.482 33.8841 482.413 33.8152C482.344 33.7462 482.309 33.608 482.309 33.505V23.1768C482.309 23.0739 482.347 22.9846 482.413 22.9194C482.482 22.8504 482.585 22.7637 482.724 22.7637H555.825C555.962 22.7637 556.07 22.8357 556.148 22.9045C556.223 22.9711 556.289 23.0739 556.289 23.1768V33.505C556.289 33.608 556.238 33.7122 556.134 33.8152C556.064 33.8844 555.962 33.9181 555.825 33.9181H525.654V73.9923C525.654 74.0964 525.619 74.2336 525.55 74.3024C525.481 74.3714 525.376 74.4053 525.241 74.4053H513.308C513.168 74.4053 513.066 74.3714 512.997 74.3024C512.927 74.2336 512.892 74.0964 512.892 73.9923V33.9181H482.724ZM637.304 73.9923C637.304 74.0964 637.253 74.1996 637.148 74.3024C637.081 74.3714 636.993 74.4053 636.89 74.4053H578.978C574.671 74.4053 570.987 72.9084 567.922 69.9122C564.855 66.9175 563.323 63.2859 563.323 59.0166V38.1011C563.323 33.8666 564.855 30.2514 567.922 27.2565C570.987 24.2617 574.671 22.7637 578.978 22.7637H636.89C636.993 22.7637 637.108 22.8235 637.177 22.8924C637.246 22.9613 637.304 23.0739 637.304 23.1768V33.505C637.304 33.608 637.253 33.7122 637.148 33.8152C637.081 33.8844 636.993 33.9181 636.89 33.9181H578.978C578.184 33.9181 577.513 34.1946 576.963 34.7445C576.41 35.2958 576.136 35.9498 576.136 36.7071V43.007H629.761C629.9 43.007 630.002 43.0422 630.072 43.1101C630.139 43.1792 630.176 43.2834 630.176 43.4205V53.7487C630.176 53.8527 630.139 53.956 630.072 54.0587C630.002 54.1277 629.9 54.1617 629.761 54.1617H576.136V60.463C576.136 61.2201 576.41 61.8745 576.963 62.4246C577.513 62.9757 578.184 63.2507 578.978 63.2507H636.89C636.993 63.2507 637.081 63.2859 637.148 63.3551C637.253 63.4229 637.304 63.5271 637.304 63.6638V73.9923ZM717.26 73.9923C717.26 74.0964 717.209 74.1996 717.107 74.3024C717.037 74.3714 716.951 74.4053 716.849 74.4053H658.935C654.63 74.4053 650.944 72.9084 647.877 69.9122C644.812 66.9175 643.28 63.2859 643.28 59.0166V38.1011C643.28 33.8666 644.812 30.2514 647.877 27.2565C650.944 24.2617 654.63 22.7637 658.935 22.7637H716.849C716.951 22.7637 717.07 22.8328 717.138 22.9016C717.207 22.9705 717.26 23.0739 717.26 23.1768V33.505C717.26 33.608 717.209 33.7122 717.107 33.8152C717.037 33.8844 716.951 33.9181 716.849 33.9181H658.935C658.143 33.9181 657.47 34.1946 656.919 34.7445C656.367 35.2958 656.091 35.9498 656.091 36.7071V43.007H709.717C709.856 43.007 709.959 43.0422 710.028 43.1101C710.098 43.1792 710.131 43.2834 710.131 43.4205V53.7487C710.131 53.8527 710.098 53.956 710.028 54.0587C709.959 54.1277 709.856 54.1617 709.717 54.1617H656.091V60.463C656.091 61.2201 656.367 61.8745 656.919 62.4246C657.47 62.9757 658.143 63.2507 658.935 63.2507H716.849C716.951 63.2507 717.041 63.2894 717.107 63.3551C717.175 63.4239 717.26 63.5271 717.26 63.6638V73.9923ZM858.334 26.6937L813.707 70.4884C811.146 72.9988 807.705 74.4053 804.122 74.4053H726.79C726.349 74.4053 725.926 74.2292 725.614 73.9171C725.302 73.6048 725.126 73.1812 725.126 72.7397L725.13 24.4442C725.13 23.516 725.881 22.7637 726.809 22.7637H856.725C857.656 22.7637 858.497 23.3271 858.849 24.1894C859.202 25.0515 858.998 26.0412 858.334 26.6937ZM741.682 54.0708H782.07V69.0152C782.07 69.1031 782.099 69.1894 782.156 69.2758C782.244 69.3335 782.33 69.3624 782.418 69.3624H800.82C803.999 69.3624 806.805 69.4287 809.235 67.1455L848.565 28.4321C848.684 28.2879 848.712 28.1577 848.655 28.0424C848.594 27.8981 848.48 27.8255 848.306 27.8255H834.296C834.206 27.8255 834.12 27.8543 834.035 27.9119L800.246 61.0071C799.756 61.4708 799.19 61.7013 798.553 61.7013H793.042V28.1711C793.042 28.0845 793.002 27.9903 792.937 27.9326C792.872 27.8747 792.768 27.8239 792.654 27.8239H782.418C782.33 27.8239 782.244 27.8677 782.156 27.9543C782.099 28.0118 782.07 28.0845 782.07 28.1711V44.7057H741.682V28.1711C741.682 28.0845 741.631 27.9869 741.568 27.9308C741.503 27.8729 741.407 27.8239 741.29 27.8239H731.268C731.182 27.8239 731.097 27.8677 731.009 27.9543C730.95 28.0118 730.921 28.0845 730.921 28.1711V69.0016C730.921 69.0893 730.952 69.2043 731.009 69.2623C731.068 69.3201 731.182 69.3486 731.268 69.3486H741.29C741.407 69.3486 741.492 69.3201 741.549 69.2623C741.637 69.1759 741.682 69.0893 741.682 69.0016V54.0708Z" fill="black"/>
<path fill-rule="evenodd" clip-rule="evenodd" d="M168.138 41.4715C168.917 43.2724 169.951 45.8509 169.638 48.1057V48.1136C169.419 49.6888 168.486 51.0173 167.444 52.0497L166.632 52.781C166.576 52.8235 166.534 52.8621 166.49 52.9004C166.449 52.9377 112.369 90.4246 112.098 90.5878C108.984 92.471 105.623 94.5014 101.025 94.7031C98.3521 94.8212 96.2525 94.2744 93.8758 93.6069C92.9282 93.3401 4.7725 66.441 4.43122 66.3256C2.63235 65.715 0.896909 65.1259 0.234643 63.6673C-0.54371 61.9527 0.771948 59.7551 1.87969 58.635C1.95565 58.5579 27.5593 32.7481 27.7672 32.5224C28.0899 32.1724 28.3646 31.8743 29.0478 31.3176C29.097 31.2778 29.1352 31.2442 29.172 31.2117C29.2189 31.1705 29.264 31.1308 29.3266 31.0826C29.4617 30.9783 29.5797 30.8868 29.6863 30.8041C30.284 30.3403 30.5217 30.1558 31.4097 29.5638C35.4231 26.8921 40.5101 25.3235 45.4468 23.8012C46.6984 23.4152 114.333 2.12101 114.933 1.91453C116.061 1.52583 116.936 1.24988 118.224 1.08543C122.827 0.499918 125.855 1.93275 129.467 3.6417C130.002 3.89497 149.269 13.278 152.72 15.0117L153.227 15.2659C153.748 15.5276 154.096 15.7376 154.493 16.0543C154.687 16.2078 154.879 16.3786 155.046 16.5307C155.24 16.7093 155.375 16.8582 155.542 17.0635L156.466 18.1967C157.29 19.2781 158.113 20.8625 158.685 22.143C158.956 22.7458 167.313 39.5657 168.138 41.4715ZM111.851 16.2203C114.983 16.1483 117.871 16.3302 120.9 16.8645C122.286 17.1091 123.547 17.385 124.82 17.8129C129.223 19.2954 135.673 22.0098 138.501 26.0362C138.804 26.468 139.016 26.8391 139.271 27.2841C139.313 27.3589 139.357 27.4359 139.404 27.5156C141.388 30.9557 142.245 35.1842 140.587 39.0853C140.225 39.9359 139.344 41.4264 138.729 42.042C138.627 42.1443 138.256 42.5557 138.14 42.6699L137.516 43.2618C137.415 43.3547 136.95 43.7287 136.853 43.8164L134.828 45.4382C134.601 45.6014 133.68 46.3007 133.432 46.476C133.179 46.6538 131.164 48.1057 130.574 48.4839L129.124 49.4686C125.138 52.1481 119.801 55.4712 115.635 57.8333L112.531 59.5972C111.904 59.97 111.25 60.3124 110.597 60.6562C110.187 60.8698 109.779 61.0847 109.375 61.3064C107.322 62.4397 105.047 63.4364 102.75 64.3721C97.2095 66.6282 92.3762 67.001 86.0285 65.8744C83.9052 65.4975 48.1038 56.4652 47.0447 56.1851C45.9273 55.8892 42.4065 54.9389 41.3833 54.5408C34.8888 52.0166 34.9597 47.9026 39.386 43.3665L43.2903 40.021C43.5185 39.8245 43.723 39.6653 43.9659 39.4821C44.0668 39.4052 44.1635 39.3295 44.2591 39.2538C44.3879 39.153 44.5153 39.0522 44.6532 38.9513C45.0567 38.6579 45.4283 38.3805 45.7867 38.1125C46.7753 37.374 47.6751 36.7025 48.9213 35.9207C49.0035 35.8692 49.9817 35.2545 50.4209 34.9882C52.8296 33.5308 55.9801 32.0575 58.5813 31.0232C60.9409 30.0859 63.2527 29.2488 65.6946 28.398C69.031 27.236 72.4403 26.1744 75.8482 25.114C77.3732 24.6395 78.8966 24.1651 80.4123 23.6821C80.8887 23.5306 81.3625 23.379 81.8375 23.2274C81.9066 23.2053 81.9756 23.1833 82.0432 23.1613L82.0473 23.1603C83.9675 22.5463 85.8826 21.9338 87.8201 21.3453C88.0378 21.2791 88.2581 21.2125 88.4771 21.1458C88.4784 21.1453 88.4797 21.145 88.4811 21.1447C95.9141 18.8867 104.112 16.397 111.851 16.2203Z" fill="black"/>
<path d="M204.372 0H195.073V94.7178H204.372V0Z" fill="#08999F"/>
</svg>
